<svg version="1.1" xmlns="http://www.w3.org/2000/svg" xmlns:xlink="http://www.w3.org/1999/xlink" width="512" height="512" viewBox="0 0 512 512">
<path id="svg_2" d="m99.69833,53.42388l-22.74403,0c0,0 -17.68972,-1.26262 -22.7439,15.1481c-9.00283,11.83414 -25.8237,6.62697 -30.32505,11.36107c-4.97532,0 -16.42636,2.20927 -15.16276,7.57405c1.26358,5.3651 5.05435,6.31177 3.79076,7.574c-1.26359,1.26257 -4.73845,27.1402 28.4299,26.50917c0,0 3.4746,7.57404 18.95356,0c0,0 3.47422,-2.83994 9.47643,1.89329c6.00183,4.73403 18.00538,8.2055 20.84838,7.57446c2.84322,-0.63112 20.84862,29.9807 20.84862,73.84703c0,43.86655 24.32355,74.16286 32.22087,75.74089c0,0 19.19006,61.0657 19.90079,115.50452c0,0 4.73839,23.03766 -16.1105,22.72192c-11.25339,9.3494 -16.22874,15.74008 -9.47655,15.14825c0,0 2.60602,4.2601 7.58124,3.7869c2.15451,-0.76871 -17.41311,13.96494 -9.47646,13.25507c0,0 3.47473,10.09863 17.05788,3.78723c0,0 20.84859,1.89294 22.74362,-11.36121c1.89578,-13.25491 2.8432,-34.79355 11.37233,-32.19019c0,0 1.263,-105.72104 11.37175,-113.61099c0,0 50.21298,4.14127 108.03378,-30.29608c16.42633,-9.78317 33.168,-24.3004 36.01074,9.46771c2.84341,33.76764 53.70169,61.8548 60.65109,81.42108c6.94931,19.56641 10.74008,12.62335 9.47656,58.6987c0,0 -12.00378,-2.84042 -20.84903,7.57428c-5.68561,5.68057 1.89578,5.68057 1.89578,5.68057c0,0 -4.4227,4.418 9.47668,3.78693c0,0 1.89502,2.12988 11.37131,0c0,0 15.79507,0.94702 13.26825,-11.3609c0,0 0.94705,-70.06046 5.68561,-66.27313c4.73816,3.78668 29.06177,25.87802 28.43066,73.84711c0,0 -10.74094,1.57806 -11.37292,13.25491c0,0 -5.37015,5.9957 1.89526,7.57397c0,0 10.18744,2.6033 13.26724,0c0,0 12.95151,4.41782 13.26761,-11.36185c0.31564,-15.77872 -10.42416,-70.53308 -5.68616,-83.31415c0,0 -40.74945,-23.66919 -47.38293,-96.56952c0,0 18.95316,61.8551 79.60364,51.12503c0,0 4.42252,-1.89368 -1.89548,-3.7872c-6.31799,-1.8934 -56.2272,4.73398 -68.23169,-56.80562c-8.7659,-44.02446 -2.13165,-48.75821 -30.32538,-66.27304c-37.90665,-36.21321 -132.35678,0.3157 -161.1028,-11.3609c-26.53436,-13.25452 -27.48242,-13.49117 -56.85959,-22.7222c-30.08859,-15.8584 -24.95512,-34.08318 -47.38301,-58.69907c-17.1767,-23.07704 -17.37404,-20.51325 -18.95359,-22.7221c-1.57942,-2.20927 -0.31573,-12.6237 -20.8485,-15.1481z" stroke-width="1.5" stroke="#000000" fill="#000000"/>
</svg>
