<svg version="1.1" xmlns="http://www.w3.org/2000/svg" xmlns:xlink="http://www.w3.org/1999/xlink" width="512" height="512" viewBox="0 0 512 512">
<path id="svg_4" d="m213.86546,419.93604c2.45689,-26.07782 8.21661,-53.02185 21.07393,-75.3996c12.28613,-14.6958 32.11569,-14.25638 48.67728,-19.28387c-23.20447,-6.22205 -44.86534,-17.23917 -66.11772,-28.89606c-34.78752,-15.09814 -70.19684,6.65649 -101.55353,21.91837c-23.28094,11.12341 -46.31078,24.24643 -71.38005,29.7551c-16.44541,-11.4256 -2.71104,-43.83926 8.85318,-57.52509c14.64215,-18.90051 36.31488,-28.66483 52.18817,-45.92422c6.98284,-24.37842 -25.19144,-30.37579 -39.64666,-39.95447c-22.41573,-10.1483 -41.46137,-26.77054 -58.50255,-45.32928c39.57492,-2.30591 74.5821,22.26701 110.29122,37.18675c19.31423,6.99072 37.53092,16.82358 55.58999,26.54996c8.28,-0.0415 36.37662,6.10495 33.57672,-3.3358c-21.06122,-0.93378 -18.94969,-28.17696 -4.77747,-38.97784c20.8316,-16.39127 46.22694,-26.06837 63.56937,-47.7805c7.60779,-6.10704 11.6116,-21.04545 18.0419,-25.7589c27.72617,21.66802 43.94788,55.84783 59.24512,88.2606c24.90936,5.62764 50.06638,10.19191 75.45547,11.57004c24.79373,11.33528 45.96405,31.09125 65.37677,51.15491c14.71051,11.09668 18.63092,41.293 -1.36533,47.35107c-49.3342,26.57114 -104.42053,34.69406 -158.74762,37.24741c-7.65411,-0.53992 -14.31818,0.30078 -14.36963,10.36261c-4.7851,14.33047 -6.74124,30.98465 -15.7496,42.65253c-9.94156,-2.54285 -0.52292,-31.82645 -10.73322,-17.91245c-20.08383,21.79977 -44.23984,38.14911 -68.99574,52.76932c0,-3.56686 0,-7.13437 0,-10.70056z" stroke-width="1.5" stroke="#000000" fill="#000000"/>
</svg>
