<svg version="1.1" xmlns="http://www.w3.org/2000/svg" xmlns:xlink="http://www.w3.org/1999/xlink" width="512" height="512" viewBox="0 0 512 512">
<path id="svg_5" d="m55.61372,134.24406c-2.08183,0 -3.15196,-2.09143 -3.15196,-4.59953c0,-2.09058 0.53508,-4.12189 2.08183,-4.12189c1.07013,0 2.68096,2.0313 3.21605,4.12189c1.07011,3.0451 0,4.59953 -2.14592,4.59953zm355.89565,119.35141c4.76309,0 5.83319,0.53607 3.1524,4.1209c-1.54724,2.50806 -4.76379,4.59964 -6.31061,4.59964c-1.61084,0 -3.21591,-2.09158 -3.21591,-4.59964c0,-2.57011 2.14612,-4.1209 6.37411,-4.1209zm-332.55132,-145.99256c-4.76279,-1.01564 -5.29785,-6.15408 0,-7.7058c2.68145,-0.47864 4.22821,1.01384 4.22821,4.12095c0,2.56921 -1.54676,4.06352 -4.22821,3.58485zm-59.37274,162.35781c6.3736,-1.49353 6.3736,-2.56656 4.22774,-6.09308c-1.60521,-2.56653 -2.14028,-5.67258 -1.07015,-6.68823c0.53506,-1.55452 3.21601,0 4.76328,3.04501c2.14586,4.12177 3.75106,4.66159 7.97925,2.09158c2.623,-1.55179 4.76326,-2.56927 4.76326,-1.01489c0,1.01489 1.61079,0 3.69267,-2.09131c3.21647,-3.0452 3.75107,-9.73625 0.53506,-13.32101c-2.61694,-3.04514 -15.90013,-2.0304 -19.59324,1.55164c-2.14028,2.57014 -3.75109,2.03313 -5.83293,-2.56642c-3.21648,-7.64839 -3.21648,-8.72148 4.22772,-9.19914c6.37407,0 6.37407,0 1.07015,-3.10713c-2.67534,-1.49341 -5.29786,-4.59872 -5.29786,-6.62997c0,-5.13844 7.38579,-8.18359 10.60179,-4.59969c1.07013,1.49432 3.15245,3.04613 5.29833,3.04613c4.22819,0 24.41446,-17.38187 24.41446,-20.96677c0,-1.55357 2.08793,-2.56917 4.22817,-1.55357c2.62254,0.53888 7.38578,-1.01559 12.21304,-3.58569c6.84516,-4.12094 6.84516,-4.59866 3.15202,-11.28702c-2.61691,-4.60048 -5.83292,-6.155 -13.27711,-6.155c-8.4564,0 -10.60227,1.01569 -13.21919,7.16975c-1.07619,4.12088 -4.29221,7.16606 -6.37407,7.16606c-3.69314,0 -4.76325,-4.59683 -1.07014,-7.16606c1.60473,-1.01476 2.67488,-4.59961 2.67488,-8.18445c0,-5.61432 -1.07015,-6.62994 -7.97881,-5.13565c-6.90913,1.01375 -6.90913,0.53604 -5.29831,-7.17061c1.07013,-4.59868 2.61691,-8.72058 3.69313,-9.19917c1.07012,-0.53604 2.14026,-5.13568 2.14026,-9.73524c0,-9.20012 3.1576,-10.75189 8.99657,-4.12193c2.67535,3.58485 4.28663,4.12193 5.29832,1.01482c1.07013,-2.03041 4.82124,-2.50816 10.66023,-1.49338c7.92132,2.03033 8.45638,1.49338 7.38625,-4.59962c-0.53509,-3.58484 -1.07574,-7.70575 -1.6113,-8.7205c0,-1.55264 -2.6169,-3.58488 -5.77496,-5.13751c-6.37407,-2.56919 -7.97927,-8.72054 -2.14587,-8.72054c1.61127,0 3.15759,-1.01473 3.15759,-3.04783c0,-1.5527 3.21646,-2.56648 7.44466,-2.0915c5.83852,0.5388 8.991,-1.49334 16.97025,-12.2443c5.83901,-7.7058 10.0672,-11.82674 10.60179,-9.73617c0.53552,2.56738 3.2165,4.05981 5.83945,4.05981c4.22781,0 4.76279,-1.49244 3.21608,-8.18076c-0.54071,-4.60053 -3.21608,-10.21483 -4.82684,-12.78491c-4.76328,-5.67545 -4.76328,-12.30544 0,-10.27593c3.75106,2.03308 15.42296,-3.58123 15.42296,-7.16607c0,-1.55449 1.55289,-2.56921 3.69313,-2.56921c2.1459,0 3.15805,3.10619 3.15805,7.16968c0,5.13571 1.07015,7.16607 3.75111,5.67268c2.08232,-1.074 3.6931,-4.12186 3.6931,-6.15131c0,-6.15496 16.97028,-16.90588 21.19853,-13.85803c1.61081,1.01564 3.21558,0 3.75664,-3.58486c1.54726,-7.1688 11.13127,-12.78403 15.35948,-9.19919c2.14635,1.49338 4.22824,1.01474 4.76936,-0.53608c1.0696,-2.0331 5.29782,-3.58484 10.06107,-4.0635c4.76282,-0.53699 11.1369,-2.56921 13.81825,-4.66068c10.06114,-6.62997 20.12834,-6.15223 24.35605,1.01839c2.68144,5.13568 3.75102,5.13568 3.75102,1.55082c0,-4.59959 2.08841,-5.13568 14.83043,-3.58394c20.18677,2.03312 23.34439,2.03312 30.78906,-0.537c4.76288,-1.49339 6.37354,-1.01475 6.37354,3.10529c0,2.57012 1.54724,4.60051 3.69308,4.60051c1.60532,0 3.15204,-1.49339 3.15204,-3.04786c0,-4.12094 8.52063,-6.15133 15.96475,-4.12094c5.77493,2.03312 6.30997,2.56829 4.76266,16.36797c-0.53488,8.24279 0,13.85804 1.01227,13.85804c1.06958,0 2.1459,-3.58485 2.1459,-8.72145c0,-8.66309 5.83328,-12.2443 7.97922,-5.13659c0.53513,2.56739 2.08231,1.55173 3.15247,-2.50815c2.68094,-10.75363 8.52002,-5.1393 6.90884,6.63c-1.60489,9.73619 -1.60489,9.73619 3.15778,6.15135c2.68115,-1.55174 4.7634,-5.61432 4.7634,-8.18172c0,-2.56923 1.61069,-5.61798 3.75153,-6.69109c4.22772,-2.02946 8.9967,5.67361 7.44366,11.29067c-0.53497,2.56737 -0.53497,4.59959 1.01169,4.59959c1.07642,0 2.14645,-1.49248 2.14645,-2.5692c0,-1.4934 2.62302,-2.03039 5.83899,-1.01475c6.90295,1.55173 7.91504,5.67268 2.0824,8.18081c-1.54736,1.07671 -3.15808,3.58485 -3.15808,5.6763c0,3.58487 1.07568,3.58487 6.90872,0c9.52634,-6.15132 13.75424,-5.6763 15.36545,1.01473c1.07001,3.58488 3.15759,5.13934 5.29779,3.58488c2.14633,-0.53703 6.90936,1.55445 10.60214,5.13657c3.21649,3.04783 7.97925,5.61523 10.12531,5.61523c3.1582,0 3.1582,2.56924 2.08237,9.73892c-1.07016,7.70581 -1.07016,8.72052 2.14594,5.6143c4.22751,-5.07819 5.83328,-4.60048 7.38617,2.56646c0.53467,3.58485 4.28635,6.15499 8.51392,7.70671c4.76321,1.01749 7.38614,3.58396 7.38614,6.63275c0,3.10621 1.60474,6.68829 3.21597,8.72052c4.22836,3.58485 3.15216,14.33577 -1.61124,17.92059c-1.60474,1.07312 -3.69272,0.53702 -4.22766,-1.01472c-1.0701,-1.55534 -4.76321,-1.55534 -11.67239,0c-11.13684,3.58121 -13.21921,4.59958 -10.60193,9.25752c1.61102,3.04512 20.134,2.03043 30.25354,-1.55446c3.15796,-1.55171 4.228,0 4.228,7.16974c0,5.13562 -1.07004,9.1992 -2.67496,9.1992c-1.07639,0 -2.08792,1.55171 -2.08792,4.12094c0,6.15404 2.62292,5.61427 9.53207,-1.55179c3.68713,-4.12097 5.83264,-5.13937 8.45578,-2.56915c2.67535,2.56915 3.21576,2.56915 3.21576,-1.55182c0,-2.51176 -1.0755,-4.59956 -2.68018,-4.59956c-1.01221,0 -2.08841,-2.03311 -2.08841,-4.06348c0,-2.5692 1.55283,-4.59962 3.69308,-4.59962c1.61072,0 3.75146,1.01479 3.75146,2.50816c0,1.55542 2.08755,3.58481 4.76901,4.12183c3.68704,1.55452 4.76279,3.58485 4.22751,9.73621c-1.07559,11.76834 1.07031,15.35411 8.99106,13.3237c3.7515,-1.01837 5.83337,0 4.22809,2.03041c-0.47659,1.01375 0,3.58389 1.07037,4.65698c4.29211,3.04788 2.68085,10.21484 -2.08179,10.21484c-5.83911,0 -7.44437,2.56915 -4.28604,7.16971c2.13962,2.56918 3.75092,3.0451 5.8327,1.01483c4.82724,-5.13661 5.83893,-1.01483 6.37408,19.47495c0,10.27327 1.07016,18.45775 2.14041,18.45775c2.62296,0 1.61127,11.29062 -2.14041,15.89026c-2.08789,2.56642 -2.08789,5.07449 -0.53516,7.16592c3.75177,4.60052 0,17.92166 -4.76889,17.92166c-4.2276,0 -12.20685,9.73523 -12.20685,14.33575c0,5.61691 -6.84509,0 -8.45636,-6.15222c-1.60519,-5.61447 -1.60519,-5.61447 -2.68103,-1.55472c-1.01227,4.66183 4.76907,18.99759 9.59012,23.0592c3.15787,3.10718 -2.68094,8.24374 -6.90909,6.15231c-2.14584,-1.01477 -3.15775,-4.061 -3.15775,-7.16711c0,-8.72055 -13.27805,-30.70367 -23.3447,-38.9465c-5.35629,-4.06342 -10.11954,-8.66306 -10.11954,-10.21481c0,-3.10619 -16.97577,-12.7841 -26.50238,-15.89024c-5.30411,-1.55444 -6.90906,-1.01468 -6.90906,3.10614c0,3.04524 -1.01184,4.05992 -3.15793,3.04524c-4.76303,-2.03038 -6.90936,2.57013 -2.68121,7.16972c5.83914,5.61433 4.8273,12.30528 -1.5466,9.7361c-4.28674,-1.55179 -4.82175,-1.01556 -3.21655,7.70581c0.535,5.07733 1.6113,11.76846 1.6113,14.81335c0,3.10712 1.07004,5.13773 2.1402,5.13773c1.5528,0 2.08746,-1.01569 1.01166,-2.56741c-0.53519,-1.5545 0.54114,-3.04779 2.68121,-3.04779c1.61115,0 3.15793,2.03287 3.15793,4.0625c0,2.09149 -2.0874,4.12097 -5.83914,3.58481c-3.15186,0 -5.83334,-1.49332 -5.83334,-2.50812c0,-4.66171 -14.29486,-36.38091 -18.52319,-41.03889c-4.76318,-5.07819 -1.6051,-6.6299 -39.24429,17.442c-5.8334,3.58487 -12.20755,11.29065 -15.42352,16.90579c-2.62317,5.61441 -6.85135,11.29062 -8.99158,12.30551c-2.14584,1.01553 -10.06659,9.19907 -16.97565,17.92062c-29.71899,38.40778 -24.89169,43.00735 -22.80933,121.44159c8.99661,59.43491 8.99661,59.43491 8.99661,59.43491c-21.20418,0 -21.20418,0 -21.20418,0c-17.50531,0 -17.50531,0 -17.50531,0c1.60475,-54.83755 1.60475,-54.83755 1.60475,-54.83755c1.0701,-4.59735 1.61124,-13.85736 2.14632,-18.99405c0.53506,-3.04868 -14.8884,-16.3696 -14.35327,-19.41394c0,-2.5701 15.95845,4.5997 15.95845,2.03064c2.62297,-37.3931 0,-67.14148 -6.90912,-82.97321c-1.60512,-9.73639 -14.88829,-41.03635 -16.97023,-41.03635c-0.53555,0 -4.28664,-3.04681 -7.97925,-6.63266c-6.37448,-6.68744 -8.99141,-7.16611 -44.54936,-9.19922c-38.17426,-2.08786 -38.17426,-2.08786 -38.17426,-2.08786c-9.04944,7.16605 -9.04944,7.16605 -9.04944,7.16605c-5.29826,4.66068 -10.60175,7.70688 -12.14906,7.70688c-3.21597,0 -16.49913,10.75342 -22.27411,16.90402c-0.53555,0 -1.07014,-0.53616 -1.07014,-1.0148c-0.53511,0 -0.53511,0 -0.53511,-0.53702c-0.53552,-1.49246 -1.07619,-3.04706 -2.14632,-4.59879c3.21602,-2.56989 5.83896,-4.1246 6.90913,-3.58478c1.60522,1.01489 3.15801,0 3.15801,-2.57001c0,-2.56744 -3.15801,-3.58408 -11.61393,-2.56744c-10.12561,1.55258 -12.74815,2.08966 -14.35332,8.18265c-2.623,3.10623 -3.15808,7.70572 -1.60521,11.29047c-0.54066,4.59979 -0.54066,7.70612 0,7.70612c0.53505,0 1.07014,-1.01495 2.67533,-2.09164c0,0.53812 0.53505,1.07669 1.07575,1.55444c-5.30395,1.55191 -7.98487,6.15234 -7.44423,10.75204c-2.68093,2.09052 -5.30391,3.10602 -8.51993,4.6579c0,0 0,-0.53705 -0.47712,-0.53705c2.08838,-4.59854 3.15851,-9.73615 3.69314,-17.44202c1.07619,-8.66315 0.53505,-14.33575 -1.07016,-14.33575c-1.07014,0 -2.14586,2.0914 -2.14586,5.13568c0.53505,2.57013 -0.47712,5.13666 -2.61739,5.61523c-1.6108,0.5368 -2.68048,-0.47858 -2.68048,-3.0451c0,-6.15408 -2.08231,-6.15408 -6.85117,-0.53967c-2.14027,2.09137 -6.36847,4.60043 -10.06159,5.67615c-4.82682,1.49347 -6.3736,0.47778 -8.51994,-5.13647c-1.6052,-4.59961 -2.67534,-9.73892 -1.6052,-11.76947c0.53507,-2.56912 0.53507,-4.65787 -1.54679,-4.65787c-5.839,0 -1.6108,-8.18439 5.29833,-9.7388zm45.61851,-117.79607c-3.21599,-0.53606 -5.83899,-2.02946 -6.90913,-4.12096c-0.53505,-3.04778 -1.07014,-3.04778 -1.07014,0c0,2.09149 -2.14587,3.5849 -4.22771,4.12096c-3.75157,0 -3.75157,0.53706 0.53506,2.57018c2.61693,1.01469 5.29786,2.56641 5.83293,2.56641c0.47713,0 3.15805,-1.55171 5.83899,-2.56641c4.76326,-2.57018 4.76326,-2.57018 0,-2.57018zm420.56712,82.49446c1.01141,1.01575 2.08179,-0.53973 2.08179,-3.10619c0,-2.0322 -1.07037,-4.06255 -2.08179,-4.06255c-1.6109,0 -2.68106,1.01477 -2.68106,2.5072c0,1.55534 1.07016,3.6468 2.68106,4.66153zm-3.75122,4.60057c-0.53482,-1.55547 -3.15799,-3.58482 -5.30429,-3.58482c-1.54672,0 -2.61694,2.02936 -1.54672,3.58482c0.47662,1.55174 2.62268,2.56648 4.76312,2.56648c2.08789,0 2.62244,-1.01474 2.08789,-2.56648zm-4.76303,23.05632c1.60504,0 3.75085,-0.53622 3.75085,-1.01489c0,-1.07669 -2.14581,-2.09131 -3.75085,-3.10605c-2.08798,-1.01566 -3.69348,-0.4787 -3.69348,1.01474c0,1.55441 1.6055,3.1062 3.69348,3.1062zm4.22821,-48.68285c2.13962,-1.01648 3.21582,-2.5701 2.67514,-4.06435c-1.60577,-3.64229 -10.59683,-3.64229 -10.59683,0c0,4.06435 3.15222,5.61617 7.92169,4.06435zm-29.12552,-38.41132c-2.681,1.55447 -4.2861,4.59961 -3.75162,6.15405c2.68088,4.06081 5.83942,3.04515 8.51437,-3.58481c2.62289,-6.15407 1.55283,-7.16873 -4.76276,-2.56924zm-10.12555,78.9097c13.81799,13.79872 14.35373,14.33565 14.35373,9.7361c0,-2.56653 -1.0701,-4.65784 -2.68124,-4.65784c-1.54694,0 -4.22794,-2.57019 -5.83304,-5.61433c-1.54749,-3.04887 -4.76324,-6.15504 -7.38617,-6.15504c-4.82141,0 -4.82141,0.53973 1.54672,6.69112zm-11.13138,-24.13396c3.21054,0 4.76324,-1.0139 2.67526,-1.49243c-1.60504,-1.01477 -4.22821,-1.01477 -5.83286,0c-1.61118,0.47853 0,1.49243 3.15759,1.49243zm-15.36496,-69.64845c1.60507,1.55179 6.36783,3.58208 10.59619,4.59959c7.44403,1.55171 7.97931,1.55171 3.75092,-2.56926c-4.82065,-5.07823 -18.04037,-6.62994 -14.34711,-2.03033zm-32.34155,-85.0026c-1.60526,1.4934 -2.14014,4.59958 -1.60526,6.62907c1.07028,4.12187 4.22784,0.53702 4.22784,-5.61435c0,-3.10622 -0.535,-3.5848 -2.62259,-1.01472zm15.90002,110.62988c4.22849,2.56654 5.83929,2.56654 7.98541,-1.01836c4.228,-5.61526 1.54648,-8.18173 -6.37439,-4.59964c-6.3739,2.51181 -6.3739,2.51181 -1.61102,5.618zm-10.59595,-25.62727c7.97916,-5.6143 7.97916,-5.6143 1.60526,-5.6143c-4.28674,0 -7.44431,2.02948 -9.04947,5.6143c-1.01224,3.58208 -2.08789,5.6152 -1.55286,5.6152c0,0 4.22821,-3.04782 8.99707,-5.6152zm-11.67233,83.03137c3.68704,5.61537 10.06104,5.61537 7.97906,-0.53685c-0.53488,-2.03223 -1.07559,-4.59961 -1.07559,-5.13943c0,-0.47861 -2.14047,-0.47861 -4.76324,0.53983c-4.28604,1.01564 -4.28604,2.56738 -2.14023,5.13646zm-16.44089,-21.02675c4.22781,5.61525 6.37369,6.1514 11.13687,2.03044c3.1582,-2.56659 3.1582,-2.56659 0,-3.04613c-1.60541,0 -5.83344,-0.53876 -9.526,-1.5544c-5.30399,-2.02951 -5.30399,-2.02951 -1.61087,2.57008zm-0.53503,-55.85332c2.68039,0 5.83847,-8.18442 4.22803,-10.75092c-2.08212,-2.56918 -6.36832,1.55171 -6.36832,6.1514c0,2.57007 1.06976,4.59952 2.14029,4.59952zm-25.96231,34.82559c-3.21545,2.0914 -2.68039,2.57018 1.54755,2.57018c2.68118,0 5.83331,-1.01758 6.90881,-2.57018c1.60535,-4.06265 -3.69293,-4.06265 -8.45636,0zm0.53568,45.09972c0.47668,0.53973 2.08176,-0.53696 3.69305,-3.04524c1.60471,-2.09137 6.36847,-4.66058 10.06116,-5.67628c4.76266,-1.5517 6.90912,-4.05983 6.90912,-7.70663c0,-8.65952 -7.44421,-6.09201 -15.36557,5.1402c-3.216,5.67365 -5.83344,10.27322 -5.29776,11.28796zm-5.83908,-23.59335c4.76273,-5.61528 4.76273,-6.63271 1.01163,-8.18533c-4.22821,-2.03038 -7.38004,2.57005 -7.38004,10.75177c-0.54062,6.1541 -0.54062,6.1541 6.36841,-2.56644zm-8.51437,-60.45293c0.53503,4.12097 1.60535,3.58487 4.76328,-4.06345c3.7511,-8.18083 3.7511,-9.25755 0.53452,-9.25755c-2.0817,0 -4.22772,1.55183 -4.76276,4.12187c-1.07025,2.02942 -1.07025,6.69112 -0.53503,9.19913zm-2.62286,-41.99252c0,2.08785 1.01175,7.16699 2.08765,10.75092c1.60529,7.16968 1.60529,7.16968 3.21619,1.01476c2.08231,-6.15042 0,-15.35052 -3.21619,-15.35052c-1.5527,0 -2.08765,1.55177 -2.08765,3.58485zm-37.1571,16.90223c-2.62253,3.58481 -2.62253,7.16966 -0.54074,17.92058c1.0759,7.70676 3.75726,15.4126 5.30405,16.90594c2.68079,2.5701 3.21588,0 3.75104,-15.88754c0,-19.414 -2.68106,-25.56801 -8.51434,-18.93898zm4.76331,54.30147c0.53494,1.01491 1.60529,-1.01552 1.06998,-4.06244c0,-3.10716 -0.53503,-3.58574 -1.60513,-1.5518c-0.47714,2.0295 -0.47714,4.59872 0.53516,5.61424zm19.11661,-48.1474c-0.53568,1.01559 -0.53568,8.18535 1.06995,15.88844c1.61102,13.3237 2.08777,13.85982 2.62265,4.12363c0.535,-15.8902 -0.53488,-23.59599 -3.6926,-20.01207zm-18.04663,144.50011c3.21613,-6.15509 8.5145,-16.42822 12.20779,-22.58237c4.22766,-6.62994 6.90878,-15.35042 7.97919,-24.07185c1.55225,-13.79875 1.55225,-13.79875 1.55225,-13.79875c-6.37411,7.6474 -6.37411,7.6474 -6.37411,7.6474c-3.15732,4.1219 -5.29782,8.72061 -5.29782,10.27322c0,4.06255 -10.06729,29.68887 -13.22528,34.28851c-1.60529,2.56659 -4.28607,8.24384 -4.76315,12.30539c-2.68094,11.76657 2.08786,9.73621 7.92114,-4.06155zm-37.63966,52.74622c1.61121,10.21381 1.61121,10.21381 6.90923,-11.76944c3.15808,-11.82843 7.92117,-30.76312 11.13736,-42.5322c4.22784,-14.8728 5.83896,-27.17813 5.83896,-44.56177c0,-22.57962 -0.54117,-23.05728 -4.76889,-20.4881c-9.58456,6.63094 -14.88846,25.08768 -17.02872,60.92804c-1.01215,18.46121 -2.08794,36.91788 -3.15807,40.98132c-0.53508,4.12115 0,11.82697 1.07013,17.44214zm1.07579,-131.12076c2.08229,5.07825 4.22821,9.20007 4.22821,9.20007c0.53513,0 3.15198,-3.10716 5.29825,-7.16968c2.68103,-3.58128 6.90927,-7.703 8.5144,-9.19647c6.31564,-4.66057 7.92093,-18.99644 2.62253,-28.73265c-4.22766,-8.72136 -15.90005,-18.46033 -18.04601,-15.35406c-1.07004,1.01567 -2.61739,10.75461 -3.69318,22.04239c-2.1402,16.90497 -2.1402,22.04433 1.07579,29.2104zm-3.21599,-117.31913c1.07007,1.01749 2.1402,0.47775 2.1402,-1.07402c0,-2.0322 -1.07013,-4.06258 -2.1402,-5.07819c-1.61084,-1.07584 -2.62303,-0.53611 -2.62303,1.49426c0,1.55173 1.01219,3.58393 2.62303,4.65795zm-171.8148,137.7479c7.38579,0.53972 7.38579,0.53972 7.38579,0.53972c7.44424,0 14.88844,-6.63173 14.88844,-12.3054c0,-3.58484 -0.53509,-3.58484 -22.27423,11.76569zm3.15762,-14.33586c0,1.55539 1.07012,3.10716 2.68143,3.10716c2.61691,0 10.06109,-9.20007 8.45593,-10.75096c-1.61081,-2.0914 -11.13736,4.59875 -11.13736,7.6438zm5.83896,-35.30331c7.97932,10.21672 11.67246,11.23224 15.90013,4.59964c4.28659,-6.15132 0.53561,-10.27225 -12.21254,-11.76654c-10.59671,-1.55449 -10.59671,-1.55449 -3.68759,7.1669zm-5.83896,-28.72981c0,1.07312 3.75157,3.58116 7.97925,5.67264c19.59375,9.73621 23.34481,9.73621 22.80924,0.47874c0,-5.61533 -7.97878,-17.92065 -11.1368,-17.92065c-3.75111,0 -19.65169,9.73616 -19.65169,11.76927zm28.64875,72.7556c5.83289,0 6.36844,-1.5518 1.60518,-4.06085c-2.14591,-0.53967 -4.22825,0 -4.76328,1.49426c-1.0757,1.55087 0.53503,2.56659 3.1581,2.56659zm4.22773,-120.36613c-3.69273,-2.56923 -8.46153,-3.58395 -10.60178,-2.56923c-3.69317,2.03226 -3.15808,2.56923 2.14025,4.12005c2.62297,1.01839 7.98489,2.03403 10.60224,2.5127c3.15755,0 3.15755,-1.01837 -2.14071,-4.06352zm-0.47665,18.45674c3.15192,0 3.69261,-0.53607 1.54671,-2.08785c-1.54671,-0.47865 -3.69262,-0.47865 -4.76279,0.53704c-0.535,1.01474 1.07018,2.02946 3.21608,1.55081zm3.15192,11.76926c-7.44374,0 -7.44374,0.47864 -3.15192,4.60051c5.29828,4.59868 6.84509,5.13571 8.99141,2.02942c3.69266,-4.05983 1.06966,-6.62993 -5.83949,-6.62993zm10.60229,-57.88281c-2.14589,-2.56921 -2.68092,2.03043 -1.6052,7.64469c0.53506,3.58579 2.67534,6.69106 3.75153,6.69106c2.08189,0 0.53461,-11.29062 -2.14632,-14.33575zm16.97021,67.61903c-1.06967,0.47856 1.61087,3.58484 4.76898,6.15491c3.21648,2.56653 5.83339,3.58121 5.83339,2.02946c0,-3.58388 -8.9915,-10.27496 -10.60237,-8.18437zm-13.27712,3.58484c-4.76324,3.58488 -2.0823,12.78401 4.82128,14.3358c3.6931,1.01559 9.53214,5.13652 13.22482,9.19911c3.21648,4.12181 5.83339,5.67628 5.83339,4.12181c0,-5.13655 -21.19852,-29.74818 -23.87949,-27.65672zm21.73916,42.53221c-3.15808,-8.2455 -6.85117,-12.30624 -13.75983,-14.87549c-5.29836,-2.03033 -10.60229,-3.10614 -12.2075,-2.56645c-1.61082,0.53612 4.76328,7.16606 13.81829,14.87282c16.97028,13.32005 16.97028,13.32005 12.14903,2.56912zm28.16605,-78.90954c-1.07021,0 -2.14635,2.03038 -2.14635,4.05984c0,2.56924 1.07614,4.12184 2.14635,4.12184c1.54675,0 2.62302,-1.5526 2.62302,-4.12184c0,-2.02946 -1.07626,-4.05984 -2.62302,-4.05984zm-4.82167,41.99255c0,3.58397 9.04941,1.01472 12.74251,-3.58485c5.29837,-7.7058 4.76324,-9.73616 -2.14592,-9.73616c-4.76315,0 -10.59659,7.16975 -10.59659,13.32101zm15.4239,-110.62993c-1.61125,6.62998 -2.6814,12.2443 -2.14633,12.78403c1.61075,2.03036 5.83891,-13.32105 5.83891,-19.47512c0,-2.56646 -1.61073,0.53972 -3.69258,6.69108zm27.57248,103.46021c-2.68137,0 -4.7632,1.01846 -4.7632,3.04785c0,1.55183 1.54675,2.57013 3.15196,2.57013c2.14583,0 4.22772,-1.0183 4.76892,-2.57013c1.0701,-2.02939 -0.5412,-3.04785 -3.15768,-3.04785zm-6.37448,96.29317c3.15804,9.26134 7.92082,17.92064 10.60226,20.01222c2.68132,1.55164 7.9792,8.72137 11.13733,15.8902c3.15799,7.16705 6.37398,12.78226 6.90906,12.78226c2.6169,0 -2.68094,-47.13007 -6.37411,-61.46773c-3.21638,-12.30362 -4.22815,-23.59421 -3.69307,-41.51483c0.47668,-13.3201 0,-25.08939 -1.0701,-26.10498c-0.5351,-1.0148 -4.22778,-1.0148 -7.44421,0c-5.83896,2.03029 -6.37404,3.58481 -6.37404,14.8754c0,8.66039 -1.07008,13.32101 -3.69312,15.35046c-7.44376,4.60056 -6.90909,30.70561 0,50.177zm-15.36507,-68.6337c-1.07011,-7.70575 -2.14035,-8.72136 -7.97926,-8.72136c-6.90915,0 -6.90915,0.537 -6.37401,11.28876c0,6.63274 1.0757,14.33765 1.61072,17.91974c0.53513,3.58495 2.62299,7.16881 4.76329,7.70663c4.22818,2.56923 8.991,-15.35136 7.97926,-28.19377zm-7.97926,51.72874c-4.76329,-6.15228 -7.97932,-12.78215 -8.4559,-14.33577c0,-2.0303 -2.6815,-7.16685 -5.83344,-11.76654c-3.21599,-4.59953 -6.90913,-10.27502 -8.52046,-12.30537c-5.29776,-7.16969 -4.22765,-1.01474 1.61133,14.87271c3.69315,10.75282 10.06107,20.4899 17.50536,28.67345c13.76027,13.85806 15.36504,11.28886 3.69312,-5.13847zm-8.4559,25.14777c5.77492,0 5.29788,-0.53603 -2.6815,-8.72043c-5.29774,-5.13666 -8.99091,-10.75185 -8.99091,-13.32101c0,-2.02957 -6.90913,-9.25861 -14.88797,-15.88847c-7.92133,-6.69016 -15.36549,-13.32016 -16.43616,-15.3533c-1.07524,-2.56639 -1.61075,-2.56639 -1.61075,0.47879c0,3.10609 -2.61694,3.58386 -11.1369,2.03027c-5.83341,-1.01569 -10.5966,-1.01569 -10.5966,-0.47592c0,1.01567 2.1402,7.16705 4.28655,13.32016c3.69313,10.21571 5.29784,12.30728 16.97031,16.367c7.38617,2.56924 19.05821,8.72054 26.50238,13.3201c6.90913,4.6617 15.3651,8.24281 18.58154,8.24281zm-82.78165,17.38367c2.14593,0 5.30401,-1.01471 7.44426,-2.56927c3.69307,-3.58121 0.54064,-3.58121 -6.36851,0c-3.15804,1.55457 -3.69312,2.03317 -1.07575,2.56927zm-5.83333,-12.78401c5.29829,-2.08783 22.2742,-4.12093 37.69762,-4.12093c29.11977,-0.47873 34.95879,-2.02945 23.28647,-5.13654c-3.69324,-1.01479 -12.14911,-3.58501 -19.0582,-6.1523c-12.20707,-4.59871 -37.16268,-3.04698 -39.78004,2.08968c-0.5407,1.01749 -3.21607,1.55434 -5.83855,1.01749c-5.29835,-1.55452 -10.60228,2.56735 -12.20746,10.75182c-2.14636,6.62895 1.60518,7.16875 15.90015,1.55078zm-42.40302,11.7693c1.07015,4.12183 6.37456,4.59958 10.60227,1.01471c2.61741,-2.02951 2.61741,-3.04425 0,-6.15048c-2.14587,-3.04874 -3.69265,-3.04874 -6.90914,-0.47867c-2.14586,1.4935 -3.69313,4.05988 -3.69313,5.61444zm-16.97024,35.84125c2.08233,0 3.15245,1.5528 2.08233,4.59964c-0.47712,2.09146 -2.08233,4.12183 -3.15807,4.12183c-1.60519,0 -2.61739,-2.03036 -2.61739,-4.12183c0,-2.50827 1.54727,-4.59964 3.69313,-4.59964z" fill-opacity="null" stroke-width="1.5" stroke="#000000" fill="#000000"/>
</svg>
