<svg version="1.1" xmlns="http://www.w3.org/2000/svg" xmlns:xlink="http://www.w3.org/1999/xlink" width="512" height="512" viewBox="0 0 512 512">
<path id="svg_3" d="m405.21744,210.84294c0,0 46.47641,10.16895 57.51416,45.32332c0,0 9.87582,13.65506 6.97131,20.91843c-2.90488,7.26318 -7.55225,9.58746 -8.71423,10.45901c0,0 5.80936,-6.68231 -13.94278,-17.43164c0,0 -10.16711,-1.74356 -12.19974,-3.48654c-2.03381,-1.74316 -31.95261,-7.5538 -38.3428,6.97241c-6.39063,14.52713 -7.84299,38.93198 -6.97153,40.09396c0.87146,1.16229 30.50031,23.2431 33.11429,29.63431c2.61441,6.3916 16.55716,19.46573 22.65671,19.17554c6.10022,-0.29108 20.62415,-0.29108 24.40009,-5.22974c3.77612,-4.93936 14.8143,-5.52039 17.42892,0c2.61383,5.51993 1.74231,5.22974 1.74231,5.22974c0,0 9.29547,-2.03366 12.20013,5.22879c2.90475,7.26413 -4.35669,10.46005 -5.22815,10.46005c-0.87161,0 5.51843,-11.04041 -3.48608,-8.71637c0,0 -5.22821,0.21774 -5.22821,-1.74368c0,-1.96057 3.04959,10.24222 0,10.46005c0,0 -10.23996,-11.33099 -12.20001,-5.22958c0,0 -6.53564,1.30722 -8.71472,1.74274c-2.1781,0.43576 -1.74304,1.74332 -1.74304,1.74332c0,0 -5.66425,2.17944 -1.74246,8.71585c0,0 0,2.39716 -1.74292,3.48694c-1.74228,1.08914 1.08954,6.31863 8.71423,1.74298c0,0 1.96066,-1.74298 1.74301,0c-0.21786,1.74323 -7.84271,11.1134 -17.42868,-1.74298c0,0 -3.48569,-9.80569 1.74319,-12.20279c5.22824,-2.39688 -1.74319,-7.19116 -8.71454,-3.48605c0,0 -0.43539,6.97244 1.74304,8.71585c2.17899,1.74261 -3.70401,0.21759 -5.22858,-1.74341c-1.52502,-1.96069 -3.48547,4.14001 -3.48547,5.22946c0,1.08997 -1.96109,4.79413 -3.48611,3.48694c-1.52493,-1.3075 -15.90372,-2.83334 -15.6853,-1.74338c0.21762,1.08929 -6.75394,5.66513 -8.7146,3.48636c-1.96103,-2.17926 -12.85339,-13.29227 -13.94278,-12.20224c-1.08948,1.08936 7.40723,13.29129 12.20001,15.68839c4.79242,2.39694 24.83585,3.92245 31.37106,-1.74292c0,0 10.02158,-1.96158 10.45724,0c0,0 11.3288,4.57587 10.45718,6.97299c-0.87131,2.39719 -0.87131,1.08896 -1.74292,0c-0.87161,-1.08981 -8.06104,-5.01172 -8.71426,-3.48682c-0.65341,1.52585 0,1.74356 0,1.74356c0,0 9.15002,2.61475 8.71426,3.48669c0,0 10.6749,4.35751 8.71423,13.94492c0,0 -3.26779,2.39709 -3.48581,0c-0.21768,-2.39697 1.30673,-8.93359 -5.22842,-8.71576c0,0 -1.08942,3.48679 -5.22824,1.74359c-4.13943,-1.74359 2.39563,-5.44778 -19.17166,-3.48721c0,0 0.87173,4.14075 3.48611,5.23041c2.61395,1.08905 6.97101,1.08905 6.97101,5.22897c0,0 2.83231,3.48682 0,6.97302c0,0 -1.74307,1.0896 -1.74307,0c0,-1.0899 1.74307,-6.31894 -6.97083,-8.716c-8.71451,-2.39694 -6.97192,-1.74332 -6.97192,-1.74332c0,0 1.52548,10.45932 -1.74258,10.45932c-3.26752,0 2.17841,6.53748 8.71451,3.48669c0,0 0.65314,-2.61469 1.74289,-1.74323c1.08896,0.87134 -5.44635,13.50955 -17.42877,-1.74347c0,0 -3.92148,-8.06204 0,-10.45932c0,0 2.61441,-8.0625 -10.45724,-5.22946c0,0 -5.44629,0.87122 -5.22867,0c0.21786,-0.87164 -0.87103,4.14059 0,5.22946c0.87122,1.08932 -10.23938,-2.39691 -10.45685,-3.48587l-3.48557,0c0,0 2.03345,10.16815 3.48557,10.45898c1.45206,0.29028 -6.68079,-4.93982 -8.71442,-8.71579c0,0 0,7.26285 1.74289,8.71579c1.74298,1.45258 -7.84271,-7.84451 -6.97107,-8.71579c0,0 0.29022,9.29712 3.48547,13.94547c3.19485,4.6485 -6.97141,-4.35825 -8.71463,-6.97333c0,0 -1.74246,1.16245 0,3.48633c1.74323,2.32483 -5.80908,-2.32388 -6.97104,-8.71579c0,0 -4.93802,-4.06711 -6.97177,-5.22946c0,0 0.29056,9.87814 1.74295,10.45892c0,0 -4.06622,-3.19617 -5.22836,-6.97214c0,0 -2.32361,3.48599 -1.74271,5.22897c0,0 -6.68091,-7.55341 -8.71454,-13.94492c-2.03323,-6.3927 -1.74261,1.74265 -1.74261,1.74265c0,0 -4.06668,-0.58112 -6.97153,-12.2023c0,0 -16.84756,17.72235 -22.65704,19.1756c-5.80914,1.45224 6.9711,-6.9733 6.9711,-6.9733c0,0 -9.5849,2.90549 -10.45706,5.2301c0,0 0.87216,-3.19644 5.2291,-6.97275c4.35693,-3.77765 -5.2291,-1.74344 -5.2291,-1.74344c0,0 -2.0329,-0.58197 -1.74194,-19.1756c0,0 -13.07184,13.94553 -20.91449,13.94553c-7.84323,0 7.26169,-5.81021 8.71445,-10.4595c1.45206,-4.64795 -3.19583,-3.19522 -5.22885,-1.74261c-2.0332,1.45248 -17.13824,10.1683 -17.4288,12.20212c-0.29022,2.03366 -1.74246,-3.48615 -1.74246,-3.48615c0,0 -3.48615,1.74323 -6.97174,1.74323c-3.48566,0 10.16647,-6.39172 12.20029,-10.4592c2.03311,-4.06766 -18.88126,7.26306 -26.14311,12.20212c0,0 -6.10004,2.03366 -6.97095,0c-0.87209,-2.03381 10.45702,-9.87744 10.45702,-10.4595c0,-0.5809 4.0665,-5.51932 -3.48607,-1.74261c-7.55238,3.77692 -17.42825,0.87143 -24.39941,3.48605c-6.97203,2.61462 -14.52405,10.74973 -24.40045,10.45932c-9.87587,-0.29016 -9.87343,12.203 -27.8855,12.203c-10.45663,0 -6.09953,4.06689 -10.45663,3.48587c-4.35744,-0.58112 5.22855,-5.22946 5.22855,-5.22946c0,0 -10.45758,3.48679 -12.20024,3.48679c-1.74309,0 -9.58559,0.29001 8.71423,-6.9733c0,0 -13.36191,0 -8.71423,-1.74265c4.64778,-1.74344 16.26668,-5.23026 15.68579,-6.97351c-0.58127,-1.74292 -12.4904,-1.45251 -8.7141,-3.48615c3.7757,-2.03391 24.39946,-9.58801 19.17131,-10.45938c-5.22858,-0.87149 -12.78111,-1.16193 -8.71468,-3.48639c4.06696,-2.32462 54.02852,-7.84409 61.00017,-13.94531c6.97105,-6.10156 24.98035,-23.82339 29.62802,-24.40451c4.64783,-0.58182 0,-4.93973 -3.48566,-3.48676c-3.48599,1.45209 -6.68094,-0.87234 -5.22824,-10.45941c1.45206,-9.58768 -14.9492,21.02432 -24.40018,10.45941c-4.93794,-5.52008 -1.16176,-9.58807 -6.97116,-8.71606c-5.80949,0.8714 -5.5193,-6.39172 -6.97166,-3.48682c-1.45233,2.9057 -13.65202,20.91861 -19.17125,19.1759c-5.51935,-1.74356 -1.45239,-2.90515 -5.2287,-3.48627c-3.77626,-0.58182 -6.39023,-1.74356 -6.97112,-5.23022c-0.58081,-3.48648 -4.06686,2.32455 -5.22855,-3.48648c-1.16231,-5.81079 -2.03329,-13.07355 -6.97168,-6.97293c-4.93796,6.10175 -6.68094,2.03387 -6.9711,0c-0.2906,-2.03323 -10.74779,1.16214 -10.45723,-5.22861c0.29028,-6.39258 -10.16647,2.03317 -8.7146,-5.23029c1.45297,-7.26297 -8.83376,-0.98438 -6.97102,-6.9729c4.06676,-13.07397 -13.94281,-1.16162 -12.19981,-6.97269c1.74254,-5.81076 -8.42398,-1.16248 -6.97153,-6.97235c1.45279,-5.81134 -9.6713,-3.79257 -8.71427,-8.71661c2.03329,-10.45911 -10.45718,-3.19562 -8.71416,-12.20209c1.74304,-9.00687 -7.93151,-0.06079 -6.97163,-6.97296c1.45237,-10.45914 -12.4493,-6.6615 -8.71417,-13.94582c5.80946,-11.33081 -5.97342,-6.46004 -3.48558,-12.20218c3.77628,-8.71587 -24.26192,0.9671 -17.42878,-13.94589c3.1954,-6.97267 -18.97662,-11.61497 -8.71415,-17.43207c17.42887,-9.87766 -26.72334,-4.93875 -5.22857,-20.91818c20.04288,-9.29674 21.27117,-10.17249 -3.48558,-8.71562c-9.87637,0.58057 -24.6906,-13.0739 -10.45718,-13.94574c14.23341,-0.87175 43.28061,-7.845 10.45718,-10.45934c-32.82345,-2.61484 -33.98562,-14.5265 -20.91435,-13.94536c13.07169,0.58113 64.19498,0.58113 50.54286,-3.48685c-13.6525,-4.06769 -76.13194,-14.0078 -52.28543,-24.40466c11.32867,-4.93933 91.15377,21.32213 67.97124,3.48646c-3.77626,-2.90535 -40.66658,-13.36472 -54.02849,-27.89146c-13.36189,-14.52695 -10.74734,-16.56057 -3.48558,-13.94576c7.26182,2.61507 91.49872,40.96539 78.42797,27.89141c-2.32386,-2.32455 -50.5424,-25.27634 -57.51406,-45.32318c-6.97115,-20.04687 -0.29017,-14.817 5.22863,-8.71592c5.51926,6.1011 84.78267,64.36411 71.45676,45.32334c-4.06636,-5.81107 -39.50438,-29.05345 -47.05688,-52.29612c-7.55243,-23.24276 -1.74257,-16.85105 3.4856,-10.45934c5.22857,6.39173 85.99643,93.47373 73.19983,62.75546c-2.90472,-6.97298 -28.46631,-28.7633 -31.37109,-48.80972c-2.90465,-20.04685 4.64726,-12.49289 8.71423,-5.22983c4.06674,7.26336 61.29022,97.61932 62.74251,81.93041c0,0 0.29016,0.29062 1.74304,0c1.45187,-0.29049 -1.16211,-8.42516 1.7426,-6.97234c0,0 1.16177,-6.39216 3.48553,-5.22991c2.32387,1.16195 4.64774,0.29021 5.22856,-6.97285c0.58089,-7.26295 17.71906,1.16227 22.65703,38.35086c0,0 3.4861,3.77161 3.4861,12.2023c0,4.35739 20.91377,25.56702 33.11406,24.40492c12.19983,-1.16216 29.62854,24.40457 34.85641,26.14775c5.22855,1.74295 16.84763,12.20229 34.85751,1.74295c18.00958,-10.45891 35.72778,-13.94513 20.91403,-15.68846c-14.81415,-1.74341 -11.90961,-7.55412 -5.22852,-8.71623c6.68085,-1.16223 35.72812,-1.7428 26.14291,-6.97279c-9.5863,-5.2298 -17.86649,-33.1701 -5.22885,-26.14816c5.22885,2.90544 23.79718,28.72188 20.91409,10.45911c-0.87161,-5.51968 -12.19968,-12.20238 -8.71402,-31.37717c3.48566,-19.17522 8.31857,-3.92033 8.71402,-1.74348c0.58109,3.19581 14.67255,42.87487 17.42834,22.66155c0.87164,-6.39114 -6.39008,-14.81732 -3.48526,-38.35029c2.90451,-23.53336 6.97137,0 6.97137,0c0,0 8.28778,24.09978 6.97128,36.60702c-0.58093,5.52034 7.55258,3.48682 6.97159,-6.97247c-0.58124,-10.45934 -4.93842,-33.41115 -1.74319,-33.1209c3.19562,0.29056 12.76895,15.55948 10.45724,27.89115c-0.87137,4.6485 12.49048,9.29726 -1.74286,19.17552c-14.23309,9.87778 -29.62808,29.63405 -29.62808,29.63405c0,0 3.44293,12.7684 -13.94327,19.17545c-11.03799,4.06728 -1.74277,12.20224 -1.74277,12.20224z" stroke-width="1.5" stroke="#000000" fill="#000000"/>
</svg>
