<svg version="1.1" xmlns="http://www.w3.org/2000/svg" xmlns:xlink="http://www.w3.org/1999/xlink" width="512" height="512" viewBox="0 0 512 512">
  <path id="svg_6" d="m74.659401,153.391174c2.52755,-0.507584 20.819839,20.041306 21.164619,24.184769c0.505547,6.044815 12.097992,6.044815 15.128662,6.044815c3.018234,0 24.686798,13.098236 39.298752,27.205536c14.6138,14.107361 57.448135,1.009003 60.467392,0c3.029007,-1.00592 141.100418,-27.710068 178.390121,-9.068466c17.908539,8.954651 53.213196,-22.677567 57.83139,-88.424622c-1.895355,-43.832352 -41.325806,-45.478058 -49.515869,-32.118294c-6.048981,5.918617 -16.377625,4.155968 -13.863525,-6.678352c2.300354,-7.253532 17.646057,-29.598919 45.99234,-19.773594c24.026794,8.327183 37.928345,28.359165 43.079895,57.813519c3.403839,63.486 -44.213348,110.342323 -44.213348,110.342323c0,0 3.778961,16.626556 9.06488,27.208481c5.28949,10.582123 6.801544,46.856323 6.047058,51.390625c-0.757568,4.537476 22.679871,29.475708 30.234497,30.232452c6.554504,3.02417 24.947418,58.948883 25.705109,71.04126c6.799103,3.399261 -0.75769,20.407013 -9.077271,22.6745c-8.309265,2.266937 -10.578613,-13.605896 -10.578613,-21.16391c0,-7.555084 -8.315399,-43.075745 -31.751129,-46.856323c-23.426056,-3.780823 -43.841675,-16.627014 -43.841675,-16.627014c0,0 -1.508484,7.558472 -4.528107,10.582336c0,0 7.562042,12.845917 7.562042,31.739899c-0.764069,8.31488 -12.849762,34.010132 -21.167175,36.277313c0,0 -13.608459,21.160919 -19.656769,21.160919c-6.049622,0 -16.627472,7.558228 -33.262512,-1.510498c0,0 3.03125,-18.893677 18.145813,-13.602722c0,0 35.523621,-27.20874 18.145111,-39.301056c0,0 -10.585754,-15.113342 -16.632019,-21.161102c-6.049866,-6.044617 -12.090027,-15.869751 -13.610504,-27.208649c0,0 -50.636322,-3.020782 -63.494659,-6.044952c-12.847534,-3.02359 -36.283081,4.534424 -36.283081,9.068512c0,4.534515 3.78299,47.616241 10.590149,55.928253c0,0 2.268768,10.578796 0,13.602783c-2.27063,3.023773 8.317169,27.962311 -12.09819,25.695129c-19.268356,3.402313 -28.721802,-11.714355 -6.048523,-16.626617c1.132889,-16.248322 -28.721283,-85.02243 -48.369827,-75.5755c-25.701981,3.77771 -17.009674,-18.518402 -42.332428,16.626801c-26.4506,30.986267 -71.809036,52.903961 -74.079155,66.506592c0,0 -13.595181,-3.02359 -16.624321,7.558472c0,0 -35.52456,4.534058 -33.263439,-1.510529c2.267054,-6.047943 4.162922,-18.515381 18.145683,-13.605835c0,0 31.742077,-12.467773 61.984348,-77.086029c0,0 -3.778656,-16.629791 1.507782,-30.232635c5.290962,-13.602753 -3.028885,-69.530426 -40.817951,-66.509644c0,0 -14.108128,5.041626 -22.674179,-18.137146c0,0 -3.523396,-4.534164 0,-9.068466c3.518867,-4.534363 12.096912,-11.587982 13.605705,-16.626678c1.512051,-5.038834 5.039787,-12.596909 24.185146,-19.650711c9.076698,-9.446808 -1.007713,-28.2146 1.507774,-28.715942z" stroke-width="1.5" stroke="#000000" fill="#000000"/>
</svg>
