<svg version="1.1" xmlns="http://www.w3.org/2000/svg" xmlns:xlink="http://www.w3.org/1999/xlink" width="512" height="512" viewBox="0 0 512 512">
<path id="svg_1" d="m8.01359,246.75856c0,0 -7.96482,-12.2515 3.18573,-17.57828c11.15055,-5.32637 47.78793,-53.53246 76.46051,-54.33118c0,0 1.59283,-47.93955 22.30106,-39.9496c20.70786,7.98987 11.15012,14.38181 11.15012,14.38181c0,0 35.04457,-41.54761 44.60251,4.7941c0,0 9.55728,11.98473 46.1947,-22.37172c36.63716,-34.35695 162.3882,-42.52249 223.00941,20.77336c39.02631,40.74886 93.18655,101.47244 50.974,156.60263c0,0 24.43552,121.10153 -179.74139,102.91547c0,0 -79.10945,-15.02621 -119.72882,-13.42825c-40.6199,1.59784 -74.07149,15.18094 -54.15985,-3.19638c19.91161,-18.37625 73.27509,-18.37625 144.9566,-4.79333c71.68192,13.58304 186.37234,11.18585 186.37234,-70.31189c0,0 -17.52231,6.39224 -25.48676,1.59854c0,0 3.98215,17.57761 -19.11511,15.97989c-23.09744,-1.59842 -44.60196,-8.78934 -68.49573,1.59772c0,0 -7.1683,4.79437 -9.55765,0c0,0 -11.94717,0 -7.96494,-4.79404c0,0 -6.76974,-2.79663 0,-7.98987c6.77039,-5.19336 54.15942,-4.39441 52.56668,-4.7937c-1.59308,-0.39966 0.79642,-5.19357 -3.18588,-4.79404c-3.98242,0.39914 -121.8588,7.59012 -152.92096,-1.59811c0,0 -1.59285,10.78653 -7.96465,6.39215c0,0 -58.93802,5.99219 -71.68153,12.78357c-12.7435,6.79172 -8.36281,1.5979 -12.7435,3.19632c-4.38065,1.59772 -9.15932,9.18823 -14.33664,4.79361c0,0 -17.52203,4.39462 -12.74297,-3.19589c0,0 -5.57531,1.99768 -7.96481,-3.19614c0,0 -7.56648,-2.39685 3.18575,-11.18561c10.75215,-8.78918 54.15963,-8.38943 57.34568,-12.78415c3.186,-4.39444 1.99118,-7.59024 -7.96489,-6.39188c-9.95558,1.19836 -30.26543,-2.39667 -46.19501,-12.78366c-15.92922,-10.38699 -10.77412,-15.55154 -44.60135,-19.17593c-27.34548,-2.92975 -32.92077,-6.92456 -39.8233,-9.58804c-6.90298,-2.66339 -15.92937,-17.57747 -15.92937,-17.57747z" stroke-width="1.5" stroke="#000000" fill="#000000"/>
</svg>
