<svg version="1.1" xmlns="http://www.w3.org/2000/svg" xmlns:xlink="http://www.w3.org/1999/xlink" width="512" height="512" viewBox="0 0 512 512">
<path id="svg_6" d="m274.38721,227.04263c0,0 9.66959,3.91072 10.63629,6.84402c0.96658,2.933 45.44568,-8.79976 55.11475,-15.64374c9.66904,-6.84447 31.90854,-6.08604 31.90854,-18.57724c0,-3.91064 -4.4115,-14.05524 3.86765,-10.75546c1.61011,0.64185 1.93396,5.86673 1.93396,5.86673c0,0 -1.69199,-4.82796 -4.17014,-3.48351c-1.20978,0.6566 1.75473,8.74957 3.20328,11.30563c0,0 80.94611,-12.698 98.62585,-7.82213c7.09131,1.95499 30.94244,4.88873 30.29761,15.31784c0,0 -32.87427,11.39581 -38.03238,53.12454c-0.64468,5.21436 -42.1687,-6.63876 -69.6188,45.95413c-6.12402,11.73233 -7.73584,7.49573 -9.66931,6.84399c-1.93387,-0.65198 -40.61096,-25.09561 -72.5195,21.51013c0,0 1.61145,-0.32602 1.93372,0.97778c0.3223,1.30368 15.79309,-3.58511 16.43771,4.8894c0,0 -7.20853,-3.30621 -5.59689,-0.04684c1.61148,3.25955 0.79431,6.99542 -0.20422,4.93481c-0.19147,-0.39432 -4.18976,-3.91107 -2.90118,-0.97708c1.28922,2.93326 -6.19376,9.66293 -6.58929,8.67584c-1.57477,-3.9281 3.68875,-8.34982 -5.98022,-12.58673c-9.66959,-4.23709 -36.42126,5.86603 -50.28036,37.15369c0,0 -0.96686,1.6297 -2.90079,-0.97763c-1.93359,-2.60699 -15.4709,-37.48038 -43.51186,-39.1098c0,0 -1.28925,4.88901 -5.8015,5.86682c-4.51225,0.97781 -3.54539,15.96933 -5.80147,10.75513c-2.25647,-5.21487 -1.79012,1.00824 -1.93382,0c-0.52283,-3.66739 1.65355,-9.39191 -4.83469,-6.84406c-0.85014,0.33313 -1.28941,5.54028 -2.90063,2.93292c-1.61159,-2.60739 1.98865,-7.27606 4.2444,-9.23148c2.25642,-1.95529 -7.51819,-2.1716 -3.27756,-4.45734c4.29207,-2.31274 16.43758,5.21512 11.60303,-2.93304c-4.83455,-8.14783 -32.62613,-46.20322 -72.51918,-20.53253c-7.09108,4.56314 -4.8349,-0.978 -8.70275,-5.86633c-3.8675,-4.88876 -30.96918,-51.4545 -67.68465,-45.95413c-8.70222,1.30371 -4.83457,-6.84479 -7.73518,-9.77777c-2.901,-2.93304 -20.41333,-54.23734 -37.71013,-49.86479c-3.86765,0.97765 -1.09346,-16.75243 31.90854,-14.66653c5.15698,0.326 1.93382,-3.91066 7.73528,-2.933c5.80148,0.97769 77.35398,11.0815 85.0895,13.68848c7.73534,2.60732 16.43759,5.08641 16.43759,-10.75548c0,-0.30527 -1.26909,-1.09955 -3.86765,0.97769c-1.14836,-1.03845 8.38016,-6.51805 6.76836,3.91136c-1.61124,10.42911 -5.13411,7.62592 0.96719,10.75513c8.63882,4.43057 15.48357,12.11613 29.00746,12.71085c7.41313,0.326 44.79567,18.88239 53.181,16.62181c4.83455,-1.30409 11.28064,-4.23743 8.70224,-5.86676c-2.57843,-1.62971 -11.28067,-12.05879 -10.63606,-17.59952c0.64458,-5.54039 2.57843,-9.7774 0,-11.73277c-2.57848,-1.95531 2.9007,-7.49567 7.73557,-0.97765c4.83452,6.51802 4.83452,11.40675 8.70258,11.73273c3.8671,0.32639 10.95831,-1.62891 13.53677,0c0,0 11.28088,-16.29543 17.40424,-13.68883c6.12427,2.60771 1.28949,6.19278 1.93417,8.80014c0.6445,2.60736 -6.44601,22.1622 -13.53705,21.51056z" stroke-width="1.5" stroke="#000000" fill="#000000"/>
</svg>
